o Roland_TR-909.stl
v -0.256413 1.329753 -0.551046
v -0.256535 1.305764 -0.362601
v -0.637450 1.331999 -0.135617
v -0.610728 1.346425 -0.225676
v -0.649179 1.335820 -0.461017
v -0.570822 1.371144 -0.540070
v -0.585314 1.346930 -0.579470
v -0.524889 1.344324 -0.629487
v -0.446055 1.358804 -0.635867
v -0.450657 1.335115 -0.660660
v -0.041770 1.326267 -0.653101
v 0.029215 1.339412 -0.617609
v 0.254666 1.349010 -0.614025
v 0.206592 1.336293 -0.646419
v 0.419192 1.333757 -0.662485
v 0.452101 1.367467 -0.617493
v 0.460579 1.341092 -0.652107
v 0.512042 1.338277 -0.632686
v 0.517855 1.364999 -0.596643
v 0.562038 1.348094 -0.588709
v 0.569925 1.371014 -0.519984
v 0.598710 1.335359 -0.555163
v 0.616858 1.344064 -0.512403
v 0.611658 1.359490 -0.462924
v 0.636561 1.335293 -0.459802
v -0.216880 1.345627 -0.613849
v -0.956497 0.116375 0.836003
v -0.651838 1.333593 0.414078
v -0.930734 0.116495 0.892723
v -0.564275 1.353622 0.561238
v -0.865610 0.116602 0.933311
v -0.521344 1.346630 0.595935
v 0.906107 0.116550 0.903118
v 0.555822 1.342966 0.566054
v 0.941438 0.116397 0.850032
v 0.605088 1.347565 0.499713
v -0.955376 0.112485 -0.872877
v 0.851758 0.116597 0.936070
v 0.938959 0.112434 -0.888561
v 0.831339 0.112278 -0.967019
v -0.930331 0.112383 -0.922296
v -0.878124 0.112283 -0.960400
v 0.883601 0.112308 -0.951289
v 0.599581 1.341329 0.088821
v 0.642823 1.314892 -0.047449
v 0.637503 1.336345 0.423463
v 0.614128 1.359818 0.418554
v 0.575603 1.372886 0.471683
v 0.544431 1.364466 0.546862
v 0.488677 1.351087 0.601856
v 0.447120 1.364845 0.592218
v 0.434310 1.339945 0.624593
v 0.151189 1.345858 0.588169
v -0.139534 1.339638 0.601104
v -0.179450 1.345417 0.576552
v -0.444443 1.339590 0.625403
v -0.515670 1.372694 0.556576
v -0.607284 1.348544 0.516215
v -0.624532 1.361558 0.426754
v -0.634532 1.343975 0.466383
v -0.000082 1.329489 -0.563348
v -0.603224 1.368601 -0.463360
v -0.005211 1.302254 -0.350406
v -0.251847 1.305723 -0.353206
v 0.246607 1.338499 -0.554982
v 0.243340 1.307977 -0.357952
v 0.235724 1.307483 -0.351923
v 0.243471 1.330634 -0.552908
v 0.238832 1.331348 -0.560216
v -0.248047 1.335169 -0.560902
v -0.255353 1.332869 -0.556792
v 0.236180 1.339244 -0.563869
v -0.256581 1.327953 -0.528430
v 0.246672 1.312335 -0.349117
v -0.249056 1.311630 -0.346211
v -0.259464 1.312562 -0.354923
v -0.259487 1.340544 -0.563358
vn -0.3501 0.3430 0.8717
vn -0.2806 0.3217 0.9043
vn -0.2713 0.3879 0.8809
vn 0.0074 0.7754 0.6314
vn -0.0333 0.6434 0.7648
vn 0.0675 0.6661 0.7428
vn -0.4036 0.8633 0.3030
vn -0.4172 0.8630 0.2849
vn -0.2768 0.9476 0.1596
vn -0.3573 0.9285 0.1005
vn -0.4396 0.8563 0.2711
vn 0.1936 0.9362 0.2932
vn 0.2191 0.9462 0.2379
vn 0.0800 0.9845 0.1559
vn 0.0118 0.9751 0.2215
vn -0.0466 0.6549 -0.7543
vn 0.0317 0.8006 -0.5984
vn 0.0301 0.6504 -0.7590
vn 0.1938 0.2965 -0.9352
vn 0.2622 0.3497 -0.8994
vn 0.3276 0.3880 -0.8615
vn 0.3263 0.3261 -0.8872
vn 0.2857 0.2732 -0.9186
vn -0.0749 0.4594 -0.8851
vn -0.0615 0.6043 -0.7944
vn 0.0561 0.4737 -0.8789
vn 0.0137 0.9095 -0.4154
vn -0.0236 0.9699 -0.2422
vn 0.0350 0.9618 -0.2715
vn 0.0347 0.9618 -0.2715
vn 0.0372 0.9625 -0.2688
vn 0.0652 0.9392 -0.3372
vn -0.0274 0.9060 -0.4224
vn 0.0768 0.7050 -0.7050
vn -0.0801 0.7690 -0.6342
vn 0.0629 0.8126 -0.5794
vn -0.4109 0.8512 -0.3266
vn -0.2915 0.9317 -0.2168
vn -0.3809 0.8967 -0.2256
vn -0.0280 0.9996 0.0010
vn -0.0403 0.9987 -0.0300
vn 0.0219 0.9997 0.0062
vn 0.0096 0.9987 -0.0510
vn -0.1185 0.9895 -0.0824
vn -0.0713 0.9965 -0.0435
vn -0.1064 0.9941 -0.0187
vn -0.0567 0.9984 0.0012
vn 0.5663 0.8209 0.0737
vn 0.7083 0.7038 0.0544
vn 0.6974 0.7158 -0.0359
vn 0.7120 0.6999 -0.0568
vn 0.6572 0.7505 -0.0697
vn -0.4371 0.8980 -0.0505
vn -0.4592 0.8828 -0.0993
vn -0.5774 0.8104 -0.0990
vn -0.5953 0.8030 0.0278
vn -0.6107 0.7905 0.0455
vn -0.5454 0.8354 0.0674
vn -0.4287 0.8997 -0.0816
vn -0.6038 0.7950 -0.0577
vn -0.5088 0.8517 -0.1253
vn -0.8432 0.3246 -0.4285
vn -0.8678 0.3383 -0.3641
vn -0.8265 0.3885 -0.4074
vn -0.7981 0.3589 -0.4839
vn -0.8991 0.4357 -0.0426
vn -0.9273 0.3648 0.0845
vn -0.9161 0.3805 0.1265
vn -0.8490 0.5259 0.0514
vn 0.5308 0.7525 -0.3898
vn 0.4079 0.8661 -0.2888
vn 0.4538 0.8664 -0.2085
vn 0.4924 0.8440 -0.2128
vn 0.5876 0.7531 -0.2960
vn 0.5532 0.7544 -0.3534
vn -0.7881 -0.6147 0.0317
vn -0.9607 0.2738 0.0464
vn -0.9543 0.2986 -0.0104
vn -0.9705 0.2374 -0.0426
vn 0.0485 0.9187 0.3921
vn 0.0689 0.9129 0.4023
vn 0.0890 0.9364 0.3394
vn -0.0799 0.9674 0.2405
vn -0.0810 0.9634 0.2556
vn -0.0721 0.9662 0.2475
vn -0.0707 0.9707 0.2296
vn -0.0913 0.9289 0.3589
vn -0.0203 0.9105 0.4131
vn -0.3973 0.3136 -0.8624
vn -0.3168 0.3861 -0.8663
vn -0.2690 0.2930 -0.9175
vn -0.3464 0.9313 0.1123
vn -0.3855 0.9168 0.1045
vn -0.3476 0.9303 0.1170
vn -0.8262 -0.4405 0.3512
vn -0.5116 0.3808 0.7702
vn -0.5616 0.4094 0.7190
vn -0.5846 0.4107 0.6997
vn -0.6142 0.3644 0.7000
vn 0.4882 0.7590 0.4309
vn 0.3796 0.7815 0.4951
vn 0.3863 0.7296 0.5643
vn 0.5547 0.6362 0.5362
vn 0.8587 0.3185 -0.4014
vn 0.8632 0.3811 -0.3312
vn 0.8691 0.3917 -0.3019
vn 0.8996 0.3203 -0.2968
vn -0.8912 0.2540 0.3758
vn -0.8507 0.3436 0.3978
vn -0.8458 0.3854 0.3689
vn -0.8583 0.4038 0.3168
vn -0.8971 0.3213 0.3032
vn 0.1720 0.7763 0.6065
vn 0.2113 0.7665 0.6065
vn 0.2836 0.6481 0.7068
vn 0.2780 0.6939 -0.6643
vn 0.2397 0.7039 -0.6686
vn 0.2487 0.8215 -0.5131
vn 0.3163 0.8114 -0.4915
vn 0.3628 0.7155 -0.5971
vn 0.9911 0.1311 -0.0230
vn 0.9908 0.1341 -0.0191
vn 0.9551 0.2934 0.0414
vn 0.9816 0.1560 0.1102
vn -0.7287 0.1060 0.6766
vn -0.6641 0.2550 0.7029
vn -0.6100 0.2672 0.7460
vn 0.2303 0.9730 -0.0160
vn 0.3830 0.9164 -0.1166
vn 0.3905 0.9158 -0.0945
vn 0.2379 0.9615 -0.1376
vn -0.0418 0.8617 -0.5057
vn 0.0616 0.8212 -0.5673
vn 0.0154 0.7546 -0.6560
vn -0.0940 0.7621 -0.6407
vn 0.3097 0.9501 0.0376
vn 0.2697 0.9611 -0.0588
vn 0.1185 0.9926 0.0251
vn 0.4695 0.3560 0.8080
vn 0.4604 0.3901 0.7974
vn 0.4049 0.4292 0.8073
vn 0.3585 0.3321 0.8724
vn 0.4513 0.2628 0.8528
vn 0.7794 0.3989 0.4831
vn 0.7827 0.3584 0.5088
vn 0.8291 0.2722 0.4883
vn 0.8223 0.3622 0.4390
vn 0.8069 0.4056 0.4294
vn 0.0395 0.2467 -0.9683
vn 0.0079 0.1936 -0.9810
vn -0.0732 0.2624 -0.9622
vn 0.0184 0.2838 -0.9587
vn -0.8034 0.3196 0.5023
vn -0.7969 0.4572 0.3948
vn -0.7519 0.5157 0.4108
vn 0.9824 0.1866 0.0127
vn 0.9654 0.2559 -0.0497
vn 0.9574 0.2884 -0.0113
vn 0.9609 0.2760 0.0217
vn 0.9597 0.2802 0.0236
vn -0.3105 0.8195 -0.4816
vn -0.1783 0.9134 -0.3660
vn -0.1306 0.9101 -0.3932
vn -0.2482 0.8101 -0.5312
vn -0.3200 0.8114 -0.4891
vn 0.6699 0.4778 -0.5683
vn 0.6021 0.5767 -0.5521
vn 0.5122 0.5870 -0.6269
vn 0.0778 0.3749 0.9238
vn 0.0653 0.5301 0.8454
vn -0.0188 0.3656 0.9306
vn -0.3363 0.9393 0.0683
vn -0.3328 0.9367 0.1087
vn -0.1694 0.9853 0.0236
vn -0.6150 0.3662 -0.6983
vn -0.5646 0.3739 -0.7358
vn -0.5101 0.3560 -0.7830
vn -0.5758 0.3358 -0.7455
vn 0.8981 0.4350 0.0644
vn 0.8741 0.4854 -0.0175
vn 0.7988 0.5938 0.0965
vn 0.6704 0.5975 -0.4399
vn 0.7604 0.5871 -0.2778
vn 0.7432 0.6302 -0.2246
vn 0.0690 0.9952 0.0701
vn 0.0415 0.9967 0.0697
vn 0.0647 0.9978 -0.0109
vn 0.0880 0.9949 0.0492
vn 0.1107 0.9937 0.0158
vn -0.0250 0.9993 -0.0277
vn 0.0212 0.9980 -0.0593
vn 0.0352 0.9983 -0.0461
vn 0.0236 0.9995 -0.0212
vn 0.0645 0.9979 0.0041
vn 0.0486 0.9987 0.0155
vn 0.0243 0.9995 0.0215
vn 0.0611 0.9981 -0.0098
vn 0.0155 0.9978 -0.0652
vn 0.0002 0.9986 -0.0528
vn 0.1204 0.9921 -0.0353
vn 0.0303 0.9925 -0.1181
vn -0.0561 0.9962 -0.0669
vn -0.0699 0.9975 -0.0066
vn 0.0347 0.9991 -0.0233
vn -0.0621 0.9972 0.0409
vn -0.0783 0.9967 -0.0197
vn 0.9173 -0.3974 -0.0245
vn 0.9049 -0.4216 0.0580
vn 0.9481 -0.3177 -0.0144
vn -0.0481 0.2408 0.9694
vn -0.0863 -0.6081 0.7892
vn 0.7757 0.2858 0.5626
vn -0.0193 0.2838 0.9587
vn -0.0609 0.4923 0.8683
vn -0.0728 0.3400 0.9376
vn 0.0787 0.4292 0.8998
vn -0.0072 0.9884 0.1520
vn -0.0320 0.9874 0.1550
vn 0.0495 0.9475 0.3160
vn 0.6406 0.7669 -0.0371
vn 0.6375 0.7701 0.0225
vn 0.7705 0.6354 -0.0501
vn 0.6519 0.4033 -0.6422
vn 0.6840 0.4085 -0.6044
vn 0.7024 0.3586 -0.6149
vn 0.6647 0.3393 -0.6656
vn 0.6049 0.3602 -0.7102
vn 0.6297 0.7394 0.2385
vn 0.6303 0.7511 0.1966
vn 0.4823 0.8598 0.1677
vn 0.4591 0.8576 0.2317
vn 0.5528 0.7718 0.3142
vt 0.347763 0.385635
vt 0.035695 0.120996
vt 0.364397 0.377479
vt 0.604845 0.705351
vt 0.373468 0.708962
vt 0.480762 0.706998
vt 0.330241 0.405853
vt 0.339784 0.395253
vt 0.350949 0.397476
vt 0.326744 0.427219
vt 0.323143 0.417448
vt 0.609169 0.375502
vt 0.621408 0.388848
vt 0.630157 0.405927
vt 0.597917 0.378659
vt 0.376087 0.700765
vt 0.885780 0.968844
vt 0.615820 0.699111
vt 0.627629 0.693882
vt 0.901148 0.957999
vt 0.000000 0.000000
vt 0.434647 0.695024
vt 0.501012 0.695612
vt 0.560908 0.690753
vt 0.612072 0.688891
vt 0.549556 0.703078
vt 0.645234 0.503556
vt 0.637625 0.665352
vt 0.626632 0.683398
vt 0.541863 0.621976
vt 0.490526 0.623659
vt 0.648398 0.651195
vt 0.661729 0.541446
vt 0.658321 0.652173
vt 0.650494 0.665113
vt 0.337965 0.661329
vt 0.347305 0.679123
vt 0.342523 0.688640
vt 0.322599 0.663162
vt 0.316106 0.428932
vt 0.329675 0.600359
vt 0.318658 0.576636
vt 0.083949 0.981289
vt 0.071918 0.967444
vt 0.636990 0.682227
vt 0.647263 0.675317
vt 0.002921 0.162096
vt 0.594697 0.367495
vt 0.521432 0.381046
vt 0.445049 0.378954
vt 0.101102 0.994448
vt 0.356148 0.699485
vt 0.574837 0.653680
vt 0.559747 0.676782
vt 0.015754 0.141616
vt 0.636784 0.397082
vt 0.625712 0.383450
vt 0.920143 0.937410
vt 0.640341 0.417536
vt 0.909881 0.074184
vt 0.890069 0.059903
vt 0.926814 0.093907
vt 0.647824 0.414416
vt 0.664544 0.490912
vt 0.654636 0.418690
vt 0.435269 0.385944
vt 0.432861 0.626290
vt 0.426768 0.644839
vt 0.424320 0.683176
vt 0.493794 0.683589
vt 0.556589 0.680645
s 0
f 32/1/1 31/2/2 56/3/3
f 15/4/4 10/5/5 11/6/6
f 58/7/7 30/8/8 57/9/9 59/10/10 60/11/11
f 50/12/12 49/13/13 48/14/14 51/15/15
f 10/5/16 9/16/17 11/6/18
f 40/17/19 15/4/20 17/18/21 18/19/22 43/20/23
f 67/21/24 63/21/25 74/21/26
f 11/6/27 26/22/28 12/23/29 13/24/30 16/25/31 14/26/32 15/4/33
f 63/21/34 64/21/35 75/21/36
f 66/21/37 67/21/38 74/21/39
f 48/14/40 44/27/41 21/28/42 19/29/43 16/25/44 13/24/45 74/30/46 63/31/47
f 24/32/48 44/27/49 45/33/50 25/34/51 23/35/52
f 62/36/53 6/37/54 7/38/55 5/39/56 28/40/57 60/11/58 59/10/59 4/41/60 3/42/61
f 41/43/62 37/44/63 5/39/64 7/38/65
f 65/21/66 68/21/67 66/21/68 74/21/69
f 20/45/70 19/29/71 21/28/72 24/32/73 23/35/74 22/46/75
f 37/44/76 27/47/77 28/40/78 5/39/79
f 56/3/80 52/48/81 50/12/82 51/15/83 53/49/84 54/50/85 57/9/86 30/8/87 32/1/88
f 42/51/89 8/52/90 10/5/91
f 74/53/92 13/24/93 65/54/94
f 29/55/95 31/2/96 32/1/97 30/8/98 58/7/99
f 36/56/100 49/13/101 50/12/102 34/57/103
f 39/58/104 22/46/105 23/35/106 25/34/107
f 27/47/108 29/55/109 58/7/110 60/11/111 28/40/112
f 70/21/113 77/21/114 71/21/115
f 18/19/116 17/18/117 16/25/118 19/29/119 20/45/120
f 2/21/121 73/21/122 71/21/123 76/21/124
f 69/21/125 65/21/126 72/21/127
f 48/14/128 47/59/129 45/33/130 44/27/131
f 14/26/132 16/25/133 17/18/134 15/4/135
f 44/27/136 24/32/137 21/28/138
f 33/60/139 34/57/140 50/12/141 52/48/142 38/61/143
f 36/56/144 34/57/145 33/60/146 35/62/147 46/63/148
f 15/4/149 40/17/150 42/51/151 10/5/152
f 68/21/153 65/21/154 69/21/155
f 35/62/156 39/58/157 25/34/158 45/64/159 46/65/160
f 7/38/161 6/37/162 9/16/163 10/5/164 8/52/165
f 64/21/166 76/21/167 75/21/168
f 70/21/169 61/21/170 77/21/171
f 62/36/172 3/42/173 4/41/174
f 41/43/175 7/38/176 8/52/177 42/51/178
f 76/21/179 71/21/180 77/21/181
f 64/21/182 2/21/183 76/21/184
f 57/9/185 54/50/186 55/66/187 53/49/188 51/15/189 48/14/190 63/31/191 75/67/192 76/68/193 77/69/194 61/70/195 72/71/196 65/54/197 13/24/198 12/23/199 26/22/200 11/6/201 9/16/202 6/37/203 62/36/204 4/41/205 59/10/206
f 73/21/207 1/21/208 71/21/209
f 56/3/210 31/2/211 38/61/212 52/48/213
f 72/21/214 61/21/215 69/21/216
f 53/49/217 55/66/218 54/50/219
f 45/33/220 47/59/221 46/63/222
f 18/19/223 20/45/224 22/46/225 39/58/226 43/20/227
f 36/56/228 46/63/229 47/59/230 48/14/231 49/13/232
